<svg xmlns="http://www.w3.org/2000/svg" xmlns:xlink="http://www.w3.org/1999/xlink" width="1920.183" height="1075.636" style=""><rect id="backgroundrect" width="100%" height="100%" x="0" y="0" fill="none" stroke="none"/>
  <defs>
    <linearGradient id="linear-gradient" x1="0.5" x2="0.5" y2="1" gradientUnits="objectBoundingBox">
      <stop offset="0" stop-color="#361cc1"/>
      <stop offset="1" stop-color="#2e82ef"/>
    </linearGradient>
    <clipPath id="clip-path">
      <path id="Path_199" data-name="Path 199" d="M-0.03099999999994907,607.5160000000001 s95.269,204.193 401.21,161.147 s419.656,-32.1 544.188,96.892 s343.977,107.54 572.909,67.066 s360.19,68.158 401.79,142.968 c0.04100000000000001,-2.4 -0.07400000000000001,-1075.621 -0.07400000000000001,-1075.621 l-1920,0.011000000000000003 z" fill="url(#linear-gradient)"/>
    </clipPath>
  </defs>
  
<g class="currentLayer" style=""><title>Layer 1</title><g id="Group_112" data-name="Group 112" class="selected" fill="#851f9b" fill-opacity="1">
    <path id="Path_195" data-name="Path 195" d="M-0.08900000000005548,607.364 s100.43,239.944 401.206,191.477 s442.068,9.577 537.63,114.941 s352.091,94.329 580.987,52.374 S1882.9,1007.95 1920.094,1075.594 c0.016000000000000004,0.016000000000000004 -0.37300000000000005,-1075.609 -0.37300000000000005,-1075.609 l-1919.766,-0.027000000000000007 z" opacity="0.11" fill="#851f9b" fill-opacity="1"/>
    <path id="Path_194" data-name="Path 194" d="M-0.03099999999994907,607.5160000000001 s95.269,204.193 401.21,161.147 s419.656,-32.1 544.188,96.892 s343.977,107.54 572.909,67.066 s360.19,68.158 401.79,142.968 c0.04100000000000001,-2.4 -0.07400000000000001,-1075.621 -0.07400000000000001,-1075.621 l-1920,0.011000000000000003 z" fill="#851f9b" fill-opacity="1"/>
    <g id="Mask_Group_6" data-name="Mask Group 6" clip-path="url(#clip-path)" fill="#851f9b" fill-opacity="1">
      <path id="Path_4" data-name="Path 4" d="M25.632000000000005,687.700985107422 S199.87400000000002,295.6549851074219 843.065,432.66898510742186 s869.415,77.467 1056.161,-463.982 " fill="#851f9b" stroke="#361cc1" stroke-width="128" opacity="0.14" fill-opacity="1"/>
    </g>
  </g></g></svg>